<?xml version="1.0" encoding="UTF-8"?><svg id="a" xmlns="http://www.w3.org/2000/svg" viewBox="0 0 700 700"><defs><style>.f{fill:#010101;}.g,.h{fill:#fff;}.i{fill:#1d5d2f;}.h{stroke:#231f20;}.h,.j{stroke-miterlimit:10;}.h,.j,.k{stroke-width:2px;}.j{fill:#c7875c;}.j,.k{stroke:#010101;}.k{fill:none;stroke-linecap:round;stroke-linejoin:round;}</style></defs><path class="f" d="m440.28,576.7c-1.53,1.31-1.14,2.97.82,3.39,1.54.32,3.23.3,4.8.04,3.01-.49,3.81-1.55,4.08-4.6.19-2.08.38-4.18.64-6.25,1.11-9,2.37-17.98,3.33-27,.97-9.21,1.65-18.44,2.49-27.67.88-9.79,1.77-19.59,2.7-29.37.87-9.12,1.78-18.24,2.73-27.87.93-7.21,2.18-14.34,4.43-21.28,1.46-4.49.85-5.19-3.8-5.26-5.81-.09-11.64-.32-17.45-.49-2.1-.05-4.2-.12-6.3-.07-1.92.04-2.58.59-2.95,2.45-.22,1.11-.28,2.27-.27,3.42.18,15.56.31,31.11.62,46.65.2,9.92.49,19.84,1.11,29.74.78,12.29,1.65,24.58,3.06,36.8.95,8.12,1.22,16.52,5.49,24.09-.47.27-.93.55-1.42.82-1.39.8-2.95,1.42-4.15,2.45h.04Z"/><path class="f" d="m351.05,303.78c-.26.05-.85-.47-.96-.84-.34-1.08-.57-2.22-.77-3.35-1.26-6.96-2.45-13.92-3.73-20.89-2.87-15.53-6.76-30.81-12.53-45.54-3.7-9.45-6.5-19.18-8.6-29.1-4.65-22.1-7.3-44.5-10.27-66.86-1.18-8.81-2.57-17.59-3.89-26.37-.15-.96-.47-1.89-.72-2.84-.24.03-.49.05-.74.07-.14.99-.28,1.97-.41,2.97-1.65,13.86-3.08,27.73-5.04,41.54-1.24,8.8-3.45,17.44-7.26,25.56-4.29,9.17-10.98,15.69-20.66,19.09-8.15,2.87-16.63,3.54-25.12,3.89-10.31.43-20.63.35-30.94-.36-14.83-1.04-29.12-4.08-42.45-10.95-16.06-8.29-25.81-21.1-28.48-39.13-1.42-9.57-1.82-19.21-2.11-28.85-.2-6.77-.39-13.56-.61-20.33-.01-.46-.27-.92-.42-1.37-.78,1.31-1.18,2.6-1.41,3.89-2.34,13.17-4.85,26.32-6.91,39.53-3.11,20.03-5.16,40.2-4.61,60.52.19,6.77.61,13.57,1.47,20.28,1.55,12.03,3.45,24.02,5.31,36.01,2.18,14.03,2.5,28.17,2.14,42.33-.23,9.17-.92,18.32-1.49,27.47-.62,9.92-1.34,19.83-2.01,29.74-.87,12.68-1.82,25.35-2.54,38.03-.57,9.91-.91,19.84-1.19,29.78-.34,11.26-.51,22.52-.73,33.77-.11,5.45-.28,10.9-.19,16.33.11,5.81.53,11.63.76,17.44.39,9.92.57,19.86,1.19,29.77.61,9.81,1.53,19.63,2.58,29.4.49,4.5.89,9.12,3.53,13.25-.68.55-1.3.99-1.81,1.51-1,1.01-2.11,1.99-2.85,3.18-1.2,1.91-.41,3.64,1.82,4.06,2.39.45,4.77.26,7.04-.69,1.6-.66,2.64-1.8,3.04-3.54,1.3-5.68,2.81-11.31,3.95-17.03,3.43-17.38,4.5-35.05,5.81-52.68,1.07-14.4,1.97-28.79,4.08-43.08,1.27-8.62,3.15-17.09,6.66-25.14,4.62-10.6,12.64-16.6,24.09-17.71,4.15-.41,8.41-.41,12.57,0,13.55,1.34,26.83,3.96,39.51,9.18,9.71,4,16.21,10.84,19.22,20.99,1.87,6.27,2.88,12.69,3.35,19.17,1.03,14,1.76,28.02,2.72,42.04.99,14.29,1.82,28.6,3.27,42.85.8,7.76,2.72,15.41,4.18,23.1.39,2.1,1.2,3.89,3.89,3.66.3-.03.64.31.97.49.04,1.31-.78,1.77-1.7,2.1-.89.31-1.88.42-2.74.81-1.46.66-2.99,1.3-4.24,2.27-1.76,1.37-2.33,4.01-1.45,5.7,1,1.93,2.89,2.22,4.72,1.92,8.29-1.37,9.65-1.55,12.6-9.85.47-1.35.78-2.76,1.2-4.12.34-1.09.77-2.16,1.12-3.24,1.19-3.62,2.57-7.21,3.51-10.91,3.92-15.4,6.3-31.08,8.75-46.76,2.68-17.18,5.45-34.35,8.38-51.49,1.34-7.83,3.51-15.49,6.89-22.71,5.08-10.86,13.38-16.76,25.72-16.72,8.94.03,17.72,1.3,26.52,2.49,17.24,2.31,34.46,4.85,51.86,5.68,14.6.69,29.2,1.16,43.81,1.64,10.03.32,20.06.41,30.08.78,3.7.14,7.43.62,11.08,1.32,8.76,1.68,14.99,6.62,17.8,15.21,1.42,4.34,2.54,8.84,3.16,13.36,2.28,16.49,2.53,33.13,3.24,49.75.3,6.77.42,13.56.57,20.33.22,9.65.35,19.29.62,28.94.16,6.11.41,12.22.82,18.32.24,3.47.08,7.08,2.45,10.41-1,.45-1.74.8-2.5,1.08-.8.31-1.65.49-2.43.84-.97.45-2.11,1.07-1.77,2.26.2.74,1.14,1.62,1.91,1.81,1.73.45,3.56.66,5.35.69,1.6.03,3.06-.74,3.87-2.14,1.62-2.8,3.43-5.56,4.53-8.57,3.19-8.73,4.92-17.86,6.35-27.04,3.16-20.33,4.58-40.82,6.27-61.3,1.34-16.1,2.53-32.2,3.72-48.3,1.15-15.44,2.31-30.88,3.26-46.33.72-11.72,1.41-23.47,1.54-35.2.11-9.34-.42-18.72-1.07-28.05-1.04-14.65-3.8-29-9.25-42.7-3.27-8.23-7.57-15.9-13.68-22.39-8.3-8.83-18.57-14.22-30.36-16.87-9-2.01-18.14-2.77-27.32-2.91-7.16-.11-14.33.24-21.48.46-5.45.18-10.88.45-16.32.74-8.58.46-17.17,1.03-25.75,1.45-7.25.35-14.5.55-21.76.82-8.11.3-16.22.81-24.33.85-10.13.04-20.25-.31-30.48-.51-.19.04-.26.16-.2.81.74,3.74,1.53,7.49,2.2,11.25,1.53,8.46,3.01,16.94,4.45,25.41.19,1.11.15,2.28,0,3.39-.05.38-.74.82-1.22.93l-.04.08Z"/><path class="f" d="m226.31,300.12c-3.7,4.07-6.29,4.62-11.46,2.46"/><path class="f" d="m223.75,314.65c-3.23-1.78-6.54-3.45-9.69-5.35-6.58-3.99-13.3-7.8-18.44-13.76-.5-.58-1.38-.85-2.12-1.19-2.15-.95-3.16-2.5-3.11-4.74.05-2.16,1.43-3.2,3.22-3.88.66-.26,1.42-.53,2.1-.43,2.89.39,5.35-.95,7.99-1.72,4.95-1.46,9.96-2.72,14.99-3.92,1.46-.35,3.03-.22,4.54-.31.05.28.11.57.15.85-1.55.36-3.12.72-4.68,1.09-5.12,1.27-10.26,2.54-15.37,3.85-1.85.47-3.06,1.42-3.49,3.58-.36,1.8-1.57,3.43-2.6,5.56.85,1.89,2.66,3.53,4.58,4.87,6.3,4.42,12.72,8.67,19.1,12.96.99.66,2.04,1.24,3.07,1.87-.08.22-.15.43-.23.66h-.01Z"/><g id="b"><path class="f" d="m291.21,242.49c1.93,2.84,6.31.61,7.88-2.03-2.7-1.15-5.46.26-7.88,2.03Z"/><path class="f" d="m296,236.99c-1.96.41-4.39.95-5.79,3.2-2.96,4.76,1.81,6.72,4.38,6.23,2.26-.42,5.52-1.72,6.75-4.76,1.77-4.39-3.54-5.06-5.34-4.68Z"/><ellipse class="f" cx="295.01" cy="241.57" rx="2.64" ry="3.12"/><path class="f" d="m291.21,242.49c1.93,2.84,6.31.61,7.88-2.03-2.7-1.15-5.46.26-7.88,2.03Z"/><path class="f" d="m296,236.99c-1.96.41-4.39.95-5.79,3.2-2.96,4.76,1.81,6.72,4.38,6.23,2.26-.42,5.52-1.72,6.75-4.76,1.77-4.39-3.54-5.06-5.34-4.68Z"/><ellipse class="f" cx="295.01" cy="241.57" rx="2.64" ry="3.12"/><path class="f" d="m291.21,242.49c1.93,2.84,6.31.61,7.88-2.03-2.7-1.15-5.46.26-7.88,2.03Z"/><path class="f" d="m296,236.99c-1.96.41-4.39.95-5.79,3.2-2.96,4.76,1.81,6.72,4.38,6.23,2.26-.42,5.52-1.72,6.75-4.76,1.77-4.39-3.54-5.06-5.34-4.68Z"/><ellipse class="f" cx="295.01" cy="241.57" rx="2.64" ry="3.12"/></g><g id="c"><path class="f" d="m162.87,253.56c1.3,3.18,6.06,1.89,8.12-.36-2.41-1.69-5.39-.88-8.12.36Z"/><path class="f" d="m168.69,249.15c-2,0-4.49.03-6.33,1.95-3.88,4.04.39,6.95,3,7,2.3.05,5.76-.54,7.58-3.26,2.64-3.93-2.42-5.68-4.26-5.68h0Z"/><ellipse class="f" cx="166.77" cy="253.44" rx="3.12" ry="2.64" transform="translate(-115.62 364.37) rotate(-78.1)"/><path class="f" d="m162.87,253.56c1.3,3.18,6.06,1.89,8.12-.36-2.41-1.69-5.39-.88-8.12.36Z"/><path class="f" d="m168.69,249.15c-2,0-4.49.03-6.33,1.95-3.88,4.04.39,6.95,3,7,2.3.05,5.76-.54,7.58-3.26,2.64-3.93-2.42-5.68-4.26-5.68h0Z"/><ellipse class="f" cx="166.77" cy="253.44" rx="3.12" ry="2.64" transform="translate(-115.62 364.37) rotate(-78.1)"/><path class="f" d="m162.87,253.56c1.3,3.18,6.06,1.89,8.12-.36-2.41-1.69-5.39-.88-8.12.36Z"/><path class="f" d="m168.69,249.15c-2,0-4.49.03-6.33,1.95-3.88,4.04.39,6.95,3,7,2.3.05,5.76-.54,7.58-3.26,2.64-3.93-2.42-5.68-4.26-5.68h0Z"/><ellipse class="f" cx="166.77" cy="253.44" rx="3.12" ry="2.64" transform="translate(-115.62 364.37) rotate(-78.1)"/></g><path class="j" d="m440.28,576.7c-1.53,1.31-1.14,2.97.82,3.39,1.54.32,3.23.3,4.8.04,3.01-.49,3.81-1.55,4.08-4.6.19-2.08.38-4.18.64-6.25,1.11-9,2.37-17.98,3.33-27,.97-9.21,1.65-18.44,2.49-27.67.88-9.79,1.77-19.59,2.7-29.37.87-9.12,1.78-18.24,2.73-27.87.93-7.21,2.18-14.34,4.43-21.28,1.46-4.49.85-5.19-3.8-5.26-5.81-.09-11.64-.32-17.45-.49-2.1-.05-4.2-.12-6.3-.07-1.92.04-2.58.59-2.95,2.45-.22,1.11-.28,2.27-.27,3.42.18,15.56.31,31.11.62,46.65.2,9.92.49,19.84,1.11,29.74.78,12.29,1.65,24.58,3.06,36.8.95,8.12,1.22,16.52,5.49,24.09-.47.27-.93.55-1.42.82-1.39.8-2.95,1.42-4.15,2.45h.04Z"/><path class="j" d="m351.05,303.78c-.26.05-.85-.47-.96-.84-.34-1.08-.57-2.22-.77-3.35-1.26-6.96-2.45-13.92-3.73-20.89-2.87-15.53-6.76-30.81-12.53-45.54-3.7-9.45-6.5-19.18-8.6-29.1-4.65-22.1-7.3-44.5-10.27-66.86-1.18-8.81-2.57-17.59-3.89-26.37-.15-.96-.47-1.89-.72-2.84-.24.03-.49.05-.74.07-.14.99-.28,1.97-.41,2.97-1.65,13.86-3.08,27.73-5.04,41.54-1.24,8.8-3.45,17.44-7.26,25.56-4.29,9.17-10.98,15.69-20.66,19.09-8.15,2.87-16.63,3.54-25.12,3.89-10.31.43-20.63.35-30.94-.36-14.83-1.04-29.12-4.08-42.45-10.95-16.06-8.29-25.81-21.1-28.48-39.13-1.42-9.57-1.82-19.21-2.11-28.85-.2-6.77-.39-13.56-.61-20.33-.01-.46-.27-.92-.42-1.37-.78,1.31-1.18,2.6-1.41,3.89-2.34,13.17-4.85,26.32-6.91,39.53-3.11,20.03-5.16,40.2-4.61,60.52.19,6.77.61,13.57,1.47,20.28,1.55,12.03,3.45,24.02,5.31,36.01,2.18,14.03,2.5,28.17,2.14,42.33-.23,9.17-.92,18.32-1.49,27.47-.62,9.92-1.34,19.83-2.01,29.74-.87,12.68-1.82,25.35-2.54,38.03-.57,9.91-.91,19.84-1.19,29.78-.34,11.26-.51,22.52-.73,33.77-.11,5.45-.28,10.9-.19,16.33.11,5.81.53,11.63.76,17.44.39,9.92.57,19.86,1.19,29.77.61,9.81,1.53,19.63,2.58,29.4.49,4.5.89,9.12,3.53,13.25-.68.55-1.3.99-1.81,1.51-1,1.01-2.11,1.99-2.85,3.18-1.2,1.91-.41,3.64,1.82,4.06,2.39.45,4.77.26,7.04-.69,1.6-.66,2.64-1.8,3.04-3.54,1.3-5.68,2.81-11.31,3.95-17.03,3.43-17.38,4.5-35.05,5.81-52.68,1.07-14.4,1.97-28.79,4.08-43.08,1.27-8.62,3.15-17.09,6.66-25.14,4.62-10.6,12.64-16.6,24.09-17.71,4.15-.41,8.41-.41,12.57,0,13.55,1.34,26.83,3.96,39.51,9.18,9.71,4,16.21,10.84,19.22,20.99,1.87,6.27,2.88,12.69,3.35,19.17,1.03,14,1.76,28.02,2.72,42.04.99,14.29,1.82,28.6,3.27,42.85.8,7.76,2.72,15.41,4.18,23.1.39,2.1,1.2,3.89,3.89,3.66.3-.03.64.31.97.49.04,1.31-.78,1.77-1.7,2.1-.89.31-1.88.42-2.74.81-1.46.66-2.99,1.3-4.24,2.27-1.76,1.37-2.33,4.01-1.45,5.7,1,1.93,2.89,2.22,4.72,1.92,8.29-1.37,9.65-1.55,12.6-9.85.47-1.35.78-2.76,1.2-4.12.34-1.09.77-2.16,1.12-3.24,1.19-3.62,2.57-7.21,3.51-10.91,3.92-15.4,6.3-31.08,8.75-46.76,2.68-17.18,5.45-34.35,8.38-51.49,1.34-7.83,3.51-15.49,6.89-22.71,5.08-10.86,13.38-16.76,25.72-16.72,8.94.03,17.72,1.3,26.52,2.49,17.24,2.31,34.46,4.85,51.86,5.68,14.6.69,29.2,1.16,43.81,1.64,10.03.32,20.06.41,30.08.78,3.7.14,7.43.62,11.08,1.32,8.76,1.68,14.99,6.62,17.8,15.21,1.42,4.34,2.54,8.84,3.16,13.36,2.28,16.49,2.53,33.13,3.24,49.75.3,6.77.42,13.56.57,20.33.22,9.65.35,19.29.62,28.94.16,6.11.41,12.22.82,18.32.24,3.47.08,7.08,2.45,10.41-1,.45-1.74.8-2.5,1.08-.8.31-1.65.49-2.43.84-.97.45-2.11,1.07-1.77,2.26.2.74,1.14,1.62,1.91,1.81,1.73.45,3.56.66,5.35.69,1.6.03,3.06-.74,3.87-2.14,1.62-2.8,3.43-5.56,4.53-8.57,3.19-8.73,4.92-17.86,6.35-27.04,3.16-20.33,4.58-40.82,6.27-61.3,1.34-16.1,2.53-32.2,3.72-48.3,1.15-15.44,2.31-30.88,3.26-46.33.72-11.72,1.41-23.47,1.54-35.2.11-9.34-.42-18.72-1.07-28.05-1.04-14.65-3.8-29-9.25-42.7-3.27-8.23-7.57-15.9-13.68-22.39-8.3-8.83-18.57-14.22-30.36-16.87-9-2.01-18.14-2.77-27.32-2.91-7.16-.11-14.33.24-21.48.46-5.45.18-10.88.45-16.32.74-8.58.46-17.17,1.03-25.75,1.45-7.25.35-14.5.55-21.76.82-8.11.3-16.22.81-24.33.85-10.13.04-20.25-.31-30.48-.51-.19.04-.26.16-.2.81.74,3.74,1.53,7.49,2.2,11.25,1.53,8.46,3.01,16.94,4.45,25.41.19,1.11.15,2.28,0,3.39-.05.38-.74.82-1.22.93l-.04.08Z"/><path class="k" d="m226.31,300.12c-3.7,4.07-6.29,4.62-11.46,2.46"/><path class="f" d="m223.75,314.65c-3.23-1.78-6.54-3.45-9.69-5.35-6.58-3.99-13.3-7.8-18.44-13.76-.5-.58-1.38-.85-2.12-1.19-2.15-.95-3.16-2.5-3.11-4.74.05-2.16,1.43-3.2,3.22-3.88.66-.26,1.42-.53,2.1-.43,2.89.39,5.35-.95,7.99-1.72,4.95-1.46,9.96-2.72,14.99-3.92,1.46-.35,3.03-.22,4.54-.31.05.28.11.57.15.85-1.55.36-3.12.72-4.68,1.09-5.12,1.27-10.26,2.54-15.37,3.85-1.85.47-3.06,1.42-3.49,3.58-.36,1.8-1.57,3.43-2.6,5.56.85,1.89,2.66,3.53,4.58,4.87,6.3,4.42,12.72,8.67,19.1,12.96.99.66,2.04,1.24,3.07,1.87-.08.22-.15.43-.23.66h-.01Z"/><g id="d"><path class="f" d="m291.21,242.49c1.93,2.84,6.31.61,7.88-2.03-2.7-1.15-5.46.26-7.88,2.03Z"/><path class="f" d="m296,236.99c-1.96.41-4.39.95-5.79,3.2-2.96,4.76,1.81,6.72,4.38,6.23,2.26-.42,5.52-1.72,6.75-4.76,1.77-4.39-3.54-5.06-5.34-4.68Z"/><ellipse class="f" cx="295.01" cy="241.57" rx="2.64" ry="3.12"/><path class="g" d="m291.21,242.49c1.93,2.84,6.31.61,7.88-2.03-2.7-1.15-5.46.26-7.88,2.03Z"/><path class="h" d="m296,236.99c-1.96.41-4.39.95-5.79,3.2-2.96,4.76,1.81,6.72,4.38,6.23,2.26-.42,5.52-1.72,6.75-4.76,1.77-4.39-3.54-5.06-5.34-4.68Z"/><ellipse class="i" cx="295.01" cy="241.57" rx="2.64" ry="3.12"/></g><g id="e"><path class="f" d="m162.87,253.56c1.3,3.18,6.06,1.89,8.12-.36-2.41-1.69-5.39-.88-8.12.36Z"/><path class="f" d="m168.69,249.15c-2,0-4.49.03-6.33,1.95-3.88,4.04.39,6.95,3,7,2.3.05,5.76-.54,7.58-3.26,2.64-3.93-2.42-5.68-4.26-5.68h0Z"/><ellipse class="f" cx="166.77" cy="253.44" rx="3.12" ry="2.64" transform="translate(-115.62 364.37) rotate(-78.1)"/><path class="g" d="m162.87,253.56c1.3,3.18,6.06,1.89,8.12-.36-2.41-1.69-5.39-.88-8.12.36Z"/><path class="h" d="m168.69,249.15c-2,0-4.49.03-6.33,1.95-3.88,4.04.39,6.95,3,7,2.3.05,5.76-.54,7.58-3.26,2.64-3.93-2.42-5.68-4.26-5.68h0Z"/><ellipse class="i" cx="166.77" cy="253.44" rx="3.12" ry="2.64" transform="translate(-115.62 364.37) rotate(-78.1)"/></g></svg>