<?xml version="1.0" encoding="UTF-8"?><svg id="a" xmlns="http://www.w3.org/2000/svg" viewBox="0 0 700 700"><defs><style>.f{fill:#010101;}.g,.h{fill:#fff;}.i{fill:#1d5d2f;}.h{stroke:#231f20;}.h,.j{stroke-miterlimit:10;}.h,.j,.k{stroke-width:2px;}.j{fill:#c7875c;}.j,.k{stroke:#010101;}.k{fill:none;stroke-linecap:round;stroke-linejoin:round;}</style></defs><path class="f" d="m405.55,489.5c-.94.81-.7,1.83.51,2.09.95.2,1.99.18,2.95.02,1.85-.3,2.35-.96,2.51-2.83.12-1.28.23-2.57.39-3.84.68-5.54,1.46-11.06,2.05-16.61.6-5.66,1.01-11.35,1.53-17.03.54-6.02,1.09-12.05,1.66-18.08.53-5.61,1.1-11.22,1.68-17.15.57-4.43,1.34-8.83,2.73-13.09.9-2.76.52-3.19-2.34-3.24-3.58-.06-7.16-.2-10.74-.3-1.29-.03-2.59-.07-3.88-.04-1.18.02-1.59.37-1.81,1.51-.13.68-.17,1.4-.17,2.1.11,9.57.19,19.14.38,28.71.12,6.11.3,12.21.68,18.3.48,7.56,1.01,15.12,1.88,22.64.58,5,.75,10.17,3.38,14.82-.29.17-.57.34-.87.51-.86.49-1.81.87-2.55,1.51h.02Z"/><path class="f" d="m350.64,321.56c-.16.03-.52-.29-.59-.52-.21-.67-.35-1.36-.47-2.06-.77-4.28-1.51-8.57-2.3-12.85-1.76-9.56-4.16-18.96-7.71-28.02-2.28-5.81-4-11.8-5.29-17.91-2.86-13.6-4.49-27.38-6.32-41.14-.72-5.42-1.58-10.82-2.4-16.23-.09-.59-.29-1.16-.44-1.75-.15.02-.3.03-.46.04-.08.61-.17,1.21-.25,1.83-1.01,8.53-1.9,17.06-3.1,25.56-.77,5.42-2.12,10.73-4.47,15.73-2.64,5.64-6.75,9.66-12.71,11.75-5.02,1.76-10.23,2.18-15.46,2.4-6.35.27-12.69.22-19.04-.22-9.13-.64-17.92-2.51-26.12-6.74-9.88-5.1-15.88-12.98-17.53-24.08-.87-5.89-1.12-11.82-1.3-17.75-.12-4.17-.24-8.34-.37-12.51,0-.28-.17-.57-.26-.84-.48.81-.72,1.6-.87,2.4-1.44,8.1-2.99,16.2-4.25,24.32-1.91,12.33-3.18,24.74-2.84,37.24.12,4.17.37,8.35.91,12.48.96,7.4,2.12,14.78,3.27,22.16,1.34,8.63,1.54,17.34,1.31,26.04-.14,5.64-.57,11.27-.92,16.9-.38,6.11-.82,12.2-1.24,18.3-.53,7.8-1.12,15.6-1.56,23.4-.35,6.1-.56,12.21-.73,18.33-.21,6.93-.32,13.86-.45,20.78-.07,3.35-.17,6.7-.12,10.05.07,3.58.32,7.15.47,10.73.24,6.11.35,12.22.73,18.32.37,6.04.94,12.08,1.59,18.09.3,2.77.55,5.61,2.17,8.15-.42.34-.8.61-1.11.93-.62.62-1.3,1.22-1.76,1.95-.74,1.17-.25,2.24,1.12,2.5,1.47.27,2.94.16,4.33-.42.98-.41,1.62-1.11,1.87-2.18.8-3.49,1.73-6.96,2.43-10.48,2.11-10.7,2.77-21.57,3.58-32.42.66-8.86,1.21-17.72,2.51-26.51.78-5.31,1.94-10.51,4.1-15.47,2.84-6.52,7.78-10.21,14.82-10.9,2.55-.25,5.17-.25,7.74,0,8.33.82,16.51,2.44,24.31,5.65,5.97,2.46,9.97,6.67,11.83,12.92,1.15,3.86,1.77,7.81,2.06,11.8.63,8.62,1.08,17.24,1.67,25.87.61,8.79,1.12,17.6,2.01,26.37.49,4.77,1.67,9.48,2.57,14.22.24,1.29.74,2.4,2.4,2.25.18-.02.39.19.6.3.02.81-.48,1.09-1.05,1.29-.55.19-1.16.26-1.69.5-.9.41-1.84.8-2.61,1.4-1.08.84-1.43,2.47-.89,3.51.62,1.19,1.78,1.36,2.9,1.18,5.1-.84,5.94-.96,7.75-6.06.29-.83.48-1.7.74-2.54.21-.67.47-1.33.69-2,.73-2.23,1.58-4.43,2.16-6.71,2.41-9.47,3.88-19.12,5.38-28.77,1.65-10.57,3.35-21.14,5.16-31.68.82-4.82,2.16-9.53,4.24-13.97,3.13-6.68,8.24-10.31,15.83-10.29,5.5.02,10.91.8,16.32,1.53,10.61,1.42,21.2,2.99,31.91,3.49,8.98.42,17.97.72,26.96,1.01,6.17.2,12.34.25,18.51.48,2.28.08,4.58.38,6.82.82,5.39,1.03,9.23,4.08,10.96,9.36.87,2.67,1.56,5.44,1.95,8.22,1.41,10.15,1.56,20.39,2,30.61.18,4.17.26,8.34.35,12.51.13,5.94.22,11.87.38,17.81.1,3.76.25,7.52.51,11.27.15,2.14.05,4.36,1.51,6.41-.62.27-1.07.49-1.54.67-.49.19-1.01.3-1.5.52-.6.27-1.3.66-1.09,1.39.12.46.7,1,1.17,1.11,1.06.27,2.19.41,3.29.42.98.02,1.88-.46,2.38-1.31,1-1.72,2.11-3.42,2.79-5.27,1.96-5.37,3.03-10.99,3.91-16.64,1.95-12.51,2.82-25.12,3.86-37.72.82-9.91,1.56-19.81,2.29-29.72.71-9.5,1.42-19,2-28.51.44-7.21.87-14.44.95-21.66.07-5.75-.26-11.52-.66-17.26-.64-9.02-2.34-17.84-5.69-26.28-2.01-5.07-4.66-9.78-8.42-13.78-5.11-5.43-11.43-8.75-18.68-10.38-5.54-1.24-11.16-1.71-16.81-1.79-4.41-.07-8.82.15-13.22.28-3.35.11-6.7.27-10.04.46-5.28.28-10.56.63-15.85.89-4.46.22-8.93.34-13.39.51-4.99.18-9.98.5-14.97.52-6.23.02-12.46-.19-18.76-.32-.12.02-.16.1-.12.5.46,2.3.94,4.61,1.36,6.92.94,5.21,1.85,10.42,2.74,15.64.12.68.09,1.41,0,2.09-.03.23-.46.51-.75.57l-.02.05Z"/><path class="f" d="m273.89,319.31c-2.28,2.5-3.87,2.84-7.05,1.51"/><path class="f" d="m272.31,328.25c-1.99-1.1-4.03-2.12-5.96-3.29-4.05-2.45-8.19-4.8-11.35-8.47-.31-.36-.85-.52-1.31-.73-1.32-.58-1.95-1.54-1.91-2.92.03-1.33.88-1.97,1.98-2.39.41-.16.87-.32,1.29-.27,1.78.24,3.29-.58,4.92-1.06,3.04-.9,6.13-1.67,9.23-2.41.9-.22,1.86-.13,2.79-.19.03.17.07.35.09.52-.96.22-1.92.44-2.88.67-3.15.78-6.31,1.56-9.46,2.37-1.14.29-1.88.87-2.15,2.2-.22,1.11-.96,2.11-1.6,3.42.52,1.16,1.64,2.17,2.82,2.99,3.88,2.72,7.83,5.33,11.75,7.98.61.41,1.26.77,1.89,1.15-.05.13-.09.27-.14.41h0Z"/><g id="b"><path class="f" d="m313.83,283.84c1.19,1.75,3.88.37,4.85-1.25-1.66-.71-3.36.16-4.85,1.25Z"/><path class="f" d="m316.77,280.46c-1.21.25-2.7.58-3.56,1.97-1.82,2.93,1.11,4.13,2.7,3.83,1.39-.26,3.39-1.06,4.15-2.93,1.09-2.7-2.18-3.11-3.29-2.88Z"/><ellipse class="f" cx="316.16" cy="283.28" rx="1.62" ry="1.92"/><path class="f" d="m313.83,283.84c1.19,1.75,3.88.37,4.85-1.25-1.66-.71-3.36.16-4.85,1.25Z"/><path class="f" d="m316.77,280.46c-1.21.25-2.7.58-3.56,1.97-1.82,2.93,1.11,4.13,2.7,3.83,1.39-.26,3.39-1.06,4.15-2.93,1.09-2.7-2.18-3.11-3.29-2.88Z"/><ellipse class="f" cx="316.16" cy="283.28" rx="1.62" ry="1.92"/><path class="f" d="m313.83,283.84c1.19,1.75,3.88.37,4.85-1.25-1.66-.71-3.36.16-4.85,1.25Z"/><path class="f" d="m316.77,280.46c-1.21.25-2.7.58-3.56,1.97-1.82,2.93,1.11,4.13,2.7,3.83,1.39-.26,3.39-1.06,4.15-2.93,1.09-2.7-2.18-3.11-3.29-2.88Z"/><ellipse class="f" cx="316.16" cy="283.28" rx="1.62" ry="1.92"/></g><g id="c"><path class="f" d="m234.85,290.66c.8,1.95,3.73,1.16,5-.22-1.48-1.04-3.32-.54-5,.22Z"/><path class="f" d="m238.43,287.94c-1.23,0-2.76.02-3.89,1.2-2.39,2.49.24,4.28,1.85,4.31,1.41.03,3.54-.33,4.67-2,1.62-2.42-1.49-3.49-2.62-3.49h0Z"/><ellipse class="f" cx="237.25" cy="290.58" rx="1.92" ry="1.62" transform="translate(-96.01 462.81) rotate(-78.1)"/><path class="f" d="m234.85,290.66c.8,1.95,3.73,1.16,5-.22-1.48-1.04-3.32-.54-5,.22Z"/><path class="f" d="m238.43,287.94c-1.23,0-2.76.02-3.89,1.2-2.39,2.49.24,4.28,1.85,4.31,1.41.03,3.54-.33,4.67-2,1.62-2.42-1.49-3.49-2.62-3.49h0Z"/><ellipse class="f" cx="237.25" cy="290.58" rx="1.92" ry="1.62" transform="translate(-96.01 462.81) rotate(-78.1)"/><path class="f" d="m234.85,290.66c.8,1.95,3.73,1.16,5-.22-1.48-1.04-3.32-.54-5,.22Z"/><path class="f" d="m238.43,287.94c-1.23,0-2.76.02-3.89,1.2-2.39,2.49.24,4.28,1.85,4.31,1.41.03,3.54-.33,4.67-2,1.62-2.42-1.49-3.49-2.62-3.49h0Z"/><ellipse class="f" cx="237.25" cy="290.58" rx="1.92" ry="1.62" transform="translate(-96.01 462.81) rotate(-78.1)"/></g><path class="j" d="m405.55,489.5c-.94.81-.7,1.83.51,2.09.95.2,1.99.18,2.95.02,1.85-.3,2.35-.96,2.51-2.83.12-1.28.23-2.57.39-3.84.68-5.54,1.46-11.06,2.05-16.61.6-5.66,1.01-11.35,1.53-17.03.54-6.02,1.09-12.05,1.66-18.08.53-5.61,1.1-11.22,1.68-17.15.57-4.43,1.34-8.83,2.73-13.09.9-2.76.52-3.19-2.34-3.24-3.58-.06-7.16-.2-10.74-.3-1.29-.03-2.59-.07-3.88-.04-1.18.02-1.59.37-1.81,1.51-.13.68-.17,1.4-.17,2.1.11,9.57.19,19.14.38,28.71.12,6.11.3,12.21.68,18.3.48,7.56,1.01,15.12,1.88,22.64.58,5,.75,10.17,3.38,14.82-.29.17-.57.34-.87.51-.86.49-1.81.87-2.55,1.51h.02Z"/><path class="j" d="m350.64,321.56c-.16.03-.52-.29-.59-.52-.21-.67-.35-1.36-.47-2.06-.77-4.28-1.51-8.57-2.3-12.85-1.76-9.56-4.16-18.96-7.71-28.02-2.28-5.81-4-11.8-5.29-17.91-2.86-13.6-4.49-27.38-6.32-41.14-.72-5.42-1.58-10.82-2.4-16.23-.09-.59-.29-1.16-.44-1.75-.15.02-.3.03-.46.04-.08.61-.17,1.21-.25,1.83-1.01,8.53-1.9,17.06-3.1,25.56-.77,5.42-2.12,10.73-4.47,15.73-2.64,5.64-6.75,9.66-12.71,11.75-5.02,1.76-10.23,2.18-15.46,2.4-6.35.27-12.69.22-19.04-.22-9.13-.64-17.92-2.51-26.12-6.74-9.88-5.1-15.88-12.98-17.53-24.08-.87-5.89-1.12-11.82-1.3-17.75-.12-4.17-.24-8.34-.37-12.51,0-.28-.17-.57-.26-.84-.48.81-.72,1.6-.87,2.4-1.44,8.1-2.99,16.2-4.25,24.32-1.91,12.33-3.18,24.74-2.84,37.24.12,4.17.37,8.35.91,12.48.96,7.4,2.12,14.78,3.27,22.16,1.34,8.63,1.54,17.34,1.31,26.04-.14,5.64-.57,11.27-.92,16.9-.38,6.11-.82,12.2-1.24,18.3-.53,7.8-1.12,15.6-1.56,23.4-.35,6.1-.56,12.21-.73,18.33-.21,6.93-.32,13.86-.45,20.78-.07,3.35-.17,6.7-.12,10.05.07,3.58.32,7.15.47,10.73.24,6.11.35,12.22.73,18.32.37,6.04.94,12.08,1.59,18.09.3,2.77.55,5.61,2.17,8.15-.42.34-.8.61-1.11.93-.62.62-1.3,1.22-1.76,1.95-.74,1.17-.25,2.24,1.12,2.5,1.47.27,2.94.16,4.33-.42.98-.41,1.62-1.11,1.87-2.18.8-3.49,1.73-6.96,2.43-10.48,2.11-10.7,2.77-21.57,3.58-32.42.66-8.86,1.21-17.72,2.51-26.51.78-5.31,1.94-10.51,4.1-15.47,2.84-6.52,7.78-10.21,14.82-10.9,2.55-.25,5.17-.25,7.74,0,8.33.82,16.51,2.44,24.31,5.65,5.97,2.46,9.97,6.67,11.83,12.92,1.15,3.86,1.77,7.81,2.06,11.8.63,8.62,1.08,17.24,1.67,25.87.61,8.79,1.12,17.6,2.01,26.37.49,4.77,1.67,9.48,2.57,14.22.24,1.29.74,2.4,2.4,2.25.18-.02.39.19.6.3.02.81-.48,1.09-1.05,1.29-.55.19-1.16.26-1.69.5-.9.41-1.84.8-2.61,1.4-1.08.84-1.43,2.47-.89,3.51.62,1.19,1.78,1.36,2.9,1.18,5.1-.84,5.94-.96,7.75-6.06.29-.83.48-1.7.74-2.54.21-.67.47-1.33.69-2,.73-2.23,1.58-4.43,2.16-6.71,2.41-9.47,3.88-19.12,5.38-28.77,1.65-10.57,3.35-21.14,5.16-31.68.82-4.82,2.16-9.53,4.24-13.97,3.13-6.68,8.24-10.31,15.83-10.29,5.5.02,10.91.8,16.32,1.53,10.61,1.42,21.2,2.99,31.91,3.49,8.98.42,17.97.72,26.96,1.01,6.17.2,12.34.25,18.51.48,2.28.08,4.58.38,6.82.82,5.39,1.03,9.23,4.08,10.96,9.36.87,2.67,1.56,5.44,1.95,8.22,1.41,10.15,1.56,20.39,2,30.61.18,4.17.26,8.34.35,12.51.13,5.94.22,11.87.38,17.81.1,3.76.25,7.52.51,11.27.15,2.14.05,4.36,1.51,6.41-.62.27-1.07.49-1.54.67-.49.19-1.01.3-1.5.52-.6.27-1.3.66-1.09,1.39.12.46.7,1,1.17,1.11,1.06.27,2.19.41,3.29.42.98.02,1.88-.46,2.38-1.31,1-1.72,2.11-3.42,2.79-5.27,1.96-5.37,3.03-10.99,3.91-16.64,1.95-12.51,2.82-25.12,3.86-37.72.82-9.91,1.56-19.81,2.29-29.72.71-9.5,1.42-19,2-28.51.44-7.21.87-14.44.95-21.66.07-5.75-.26-11.52-.66-17.26-.64-9.02-2.34-17.84-5.69-26.28-2.01-5.07-4.66-9.78-8.42-13.78-5.11-5.43-11.43-8.75-18.68-10.38-5.54-1.24-11.16-1.71-16.81-1.79-4.41-.07-8.82.15-13.22.28-3.35.11-6.7.27-10.04.46-5.28.28-10.56.63-15.85.89-4.46.22-8.93.34-13.39.51-4.99.18-9.98.5-14.97.52-6.23.02-12.46-.19-18.76-.32-.12.02-.16.1-.12.5.46,2.3.94,4.61,1.36,6.92.94,5.21,1.85,10.42,2.74,15.64.12.68.09,1.41,0,2.09-.03.23-.46.51-.75.57l-.02.05Z"/><path class="k" d="m273.89,319.31c-2.28,2.5-3.87,2.84-7.05,1.51"/><path class="f" d="m272.31,328.25c-1.99-1.1-4.03-2.12-5.96-3.29-4.05-2.45-8.19-4.8-11.35-8.47-.31-.36-.85-.52-1.31-.73-1.32-.58-1.95-1.54-1.91-2.92.03-1.33.88-1.97,1.98-2.39.41-.16.87-.32,1.29-.27,1.78.24,3.29-.58,4.92-1.06,3.04-.9,6.13-1.67,9.23-2.41.9-.22,1.86-.13,2.79-.19.03.17.07.35.09.52-.96.22-1.92.44-2.88.67-3.15.78-6.31,1.56-9.46,2.37-1.14.29-1.88.87-2.15,2.2-.22,1.11-.96,2.11-1.6,3.42.52,1.16,1.64,2.17,2.82,2.99,3.88,2.72,7.83,5.33,11.75,7.98.61.41,1.26.77,1.89,1.15-.05.13-.09.27-.14.41h0Z"/><g id="d"><path class="f" d="m313.83,283.84c1.19,1.75,3.88.37,4.85-1.25-1.66-.71-3.36.16-4.85,1.25Z"/><path class="f" d="m316.77,280.46c-1.21.25-2.7.58-3.56,1.97-1.82,2.93,1.11,4.13,2.7,3.83,1.39-.26,3.39-1.06,4.15-2.93,1.09-2.7-2.18-3.11-3.29-2.88Z"/><ellipse class="f" cx="316.16" cy="283.28" rx="1.62" ry="1.92"/><path class="g" d="m313.83,283.84c1.19,1.75,3.88.37,4.85-1.25-1.66-.71-3.36.16-4.85,1.25Z"/><path class="h" d="m316.77,280.46c-1.21.25-2.7.58-3.56,1.97-1.82,2.93,1.11,4.13,2.7,3.83,1.39-.26,3.39-1.06,4.15-2.93,1.09-2.7-2.18-3.11-3.29-2.88Z"/><ellipse class="i" cx="316.16" cy="283.28" rx="1.62" ry="1.92"/></g><g id="e"><path class="f" d="m234.85,290.66c.8,1.95,3.73,1.16,5-.22-1.48-1.04-3.32-.54-5,.22Z"/><path class="f" d="m238.43,287.94c-1.23,0-2.76.02-3.89,1.2-2.39,2.49.24,4.28,1.85,4.31,1.41.03,3.54-.33,4.67-2,1.62-2.42-1.49-3.49-2.62-3.49h0Z"/><ellipse class="f" cx="237.25" cy="290.58" rx="1.92" ry="1.62" transform="translate(-96.01 462.81) rotate(-78.1)"/><path class="g" d="m234.85,290.66c.8,1.95,3.73,1.16,5-.22-1.48-1.04-3.32-.54-5,.22Z"/><path class="h" d="m238.43,287.94c-1.23,0-2.76.02-3.89,1.2-2.39,2.49.24,4.28,1.85,4.31,1.41.03,3.54-.33,4.67-2,1.62-2.42-1.49-3.49-2.62-3.49h0Z"/><ellipse class="i" cx="237.25" cy="290.58" rx="1.92" ry="1.62" transform="translate(-96.01 462.81) rotate(-78.1)"/></g></svg>