<?xml version="1.0" encoding="UTF-8"?><svg id="a" xmlns="http://www.w3.org/2000/svg" viewBox="0 0 324.01 373.17"><defs><style>.f{fill:#005c00;}.g,.h{fill:#fff;}.h{stroke:#231f20;}.h,.i{stroke-miterlimit:10;}.h,.i,.j{stroke-width:2px;}.i{fill:#c7875c;}.i,.j{stroke:#000;}.j{fill:none;stroke-linecap:round;stroke-linejoin:round;}</style></defs><path d="m228.8,354.96c-1.13.97-.84,2.2.61,2.51,1.14.24,2.39.22,3.55.03,2.23-.36,2.82-1.15,3.02-3.4.14-1.54.28-3.09.47-4.62.82-6.66,1.75-13.3,2.46-19.97.72-6.81,1.22-13.64,1.84-20.47.65-7.24,1.31-14.49,2-21.73.64-6.75,1.32-13.49,2.02-20.62.69-5.33,1.61-10.61,3.28-15.74,1.08-3.32.63-3.84-2.81-3.89-4.3-.07-8.61-.24-12.91-.36-1.55-.04-3.11-.09-4.66-.05-1.42.03-1.91.44-2.18,1.81-.16.82-.21,1.68-.2,2.53.13,11.51.23,23.01.46,34.51.15,7.34.36,14.68.82,22,.58,9.09,1.22,18.18,2.26,27.22.7,6.01.9,12.22,4.06,17.82-.35.2-.69.41-1.05.61-1.03.59-2.18,1.05-3.07,1.81Z"/><path d="m162.79,153.07c-.19.04-.63-.35-.71-.62-.25-.8-.42-1.64-.57-2.48-.93-5.15-1.81-10.3-2.76-15.45-2.12-11.49-5-22.79-9.27-33.69-2.74-6.99-4.81-14.19-6.36-21.53-3.44-16.35-5.4-32.92-7.6-49.46-.87-6.52-1.9-13.01-2.88-19.51-.11-.71-.35-1.4-.53-2.1-.18.02-.36.04-.55.05-.1.73-.21,1.46-.3,2.2-1.22,10.25-2.28,20.51-3.73,30.73-.92,6.51-2.55,12.9-5.37,18.91-3.17,6.78-8.12,11.61-15.28,14.12-6.03,2.12-12.3,2.62-18.58,2.88-7.63.32-15.26.26-22.89-.27-10.97-.77-21.54-3.02-31.4-8.1-11.88-6.13-19.09-15.61-21.07-28.95-1.05-7.08-1.35-14.21-1.56-21.34-.15-5.01-.29-10.03-.45-15.04-.01-.34-.2-.68-.31-1.01-.58.97-.87,1.92-1.04,2.88-1.73,9.74-3.59,19.47-5.11,29.24-2.3,14.82-3.82,29.74-3.41,44.77.14,5.01.45,10.04,1.09,15,1.15,8.9,2.55,17.77,3.93,26.64,1.61,10.38,1.85,20.84,1.58,31.31-.17,6.78-.68,13.55-1.1,20.32-.46,7.34-.99,14.67-1.49,22-.64,9.38-1.35,18.75-1.88,28.13-.42,7.33-.67,14.68-.88,22.03-.25,8.33-.38,16.66-.54,24.98-.08,4.03-.21,8.06-.14,12.08.08,4.3.39,8.6.56,12.9.29,7.34.42,14.69.88,22.02.45,7.26,1.13,14.52,1.91,21.75.36,3.33.66,6.75,2.61,9.8-.5.41-.96.73-1.34,1.12-.74.75-1.56,1.47-2.11,2.35-.89,1.41-.3,2.69,1.35,3,1.77.33,3.53.19,5.21-.51,1.18-.49,1.95-1.33,2.25-2.62.96-4.2,2.08-8.37,2.92-12.6,2.54-12.86,3.33-25.93,4.3-38.97.79-10.65,1.46-21.3,3.02-31.87.94-6.38,2.33-12.64,4.93-18.6,3.42-7.84,9.35-12.28,17.82-13.1,3.07-.3,6.22-.3,9.3,0,10.02.99,19.85,2.93,29.23,6.79,7.18,2.96,11.99,8.02,14.22,15.53,1.38,4.64,2.13,9.39,2.48,14.18.76,10.36,1.3,20.73,2.01,31.1.73,10.57,1.35,21.16,2.42,31.7.59,5.74,2.01,11.4,3.09,17.09.29,1.55.89,2.88,2.88,2.71.22-.02.47.23.72.36.03.97-.58,1.31-1.26,1.55-.66.23-1.39.31-2.03.6-1.08.49-2.21.96-3.14,1.68-1.3,1.01-1.72,2.97-1.07,4.22.74,1.43,2.14,1.64,3.49,1.42,6.13-1.01,7.14-1.15,9.32-7.29.35-1,.58-2.04.89-3.05.25-.81.57-1.6.83-2.4.88-2.68,1.9-5.33,2.6-8.07,2.9-11.39,4.66-22.99,6.47-34.59,1.98-12.71,4.03-25.41,6.2-38.09.99-5.79,2.6-11.46,5.1-16.8,3.76-8.03,9.9-12.4,19.03-12.37,6.61.02,13.11.96,19.62,1.84,12.75,1.71,25.49,3.59,38.36,4.2,10.8.51,21.6.86,32.41,1.21,7.42.24,14.84.3,22.25.58,2.74.1,5.5.46,8.2.98,6.48,1.24,11.09,4.9,13.17,11.25,1.05,3.21,1.88,6.54,2.34,9.88,1.69,12.2,1.87,24.51,2.4,36.8.22,5.01.31,10.03.42,15.04.16,7.14.26,14.27.46,21.41.12,4.52.3,9.04.61,13.55.18,2.57.06,5.24,1.81,7.7-.74.33-1.29.59-1.85.8-.59.23-1.22.36-1.8.62-.72.33-1.56.79-1.31,1.67.15.55.84,1.2,1.41,1.34,1.28.33,2.63.49,3.96.51,1.18.02,2.26-.55,2.86-1.58,1.2-2.07,2.54-4.11,3.35-6.34,2.36-6.46,3.64-13.21,4.7-20,2.34-15.04,3.39-30.2,4.64-45.35.99-11.91,1.87-23.82,2.75-35.73.85-11.42,1.71-22.84,2.41-34.27.53-8.67,1.04-17.36,1.14-26.04.08-6.91-.31-13.85-.79-20.75-.77-10.84-2.81-21.45-6.84-31.59-2.42-6.09-5.6-11.76-10.12-16.56-6.14-6.53-13.74-10.52-22.46-12.48-6.66-1.49-13.42-2.05-20.21-2.15-5.3-.08-10.6.18-15.89.34-4.03.13-8.05.33-12.07.55-6.35.34-12.7.76-19.05,1.07-5.36.26-10.73.41-16.1.61-6,.22-12,.6-18,.63-7.49.03-14.98-.23-22.55-.38-.14.03-.19.12-.15.6.55,2.77,1.13,5.54,1.63,8.32,1.13,6.26,2.23,12.53,3.29,18.8.14.82.11,1.69,0,2.51-.04.28-.55.61-.9.69Z"/><path d="m70.52,150.36c-2.74,3.01-4.65,3.42-8.48,1.82"/><path d="m68.62,161.11c-2.39-1.32-4.84-2.55-7.17-3.96-4.87-2.95-9.84-5.77-13.64-10.18-.37-.43-1.02-.63-1.57-.88-1.59-.7-2.34-1.85-2.3-3.51.04-1.6,1.06-2.37,2.38-2.87.49-.19,1.05-.39,1.55-.32,2.14.29,3.96-.7,5.91-1.27,3.66-1.08,7.37-2.01,11.09-2.9,1.08-.26,2.24-.16,3.36-.23.04.21.08.42.11.63-1.15.27-2.31.53-3.46.81-3.79.94-7.59,1.88-11.37,2.85-1.37.35-2.26,1.05-2.58,2.65-.27,1.33-1.16,2.54-1.92,4.11.63,1.4,1.97,2.61,3.39,3.6,4.66,3.27,9.41,6.41,14.13,9.59.73.49,1.51.92,2.27,1.38-.06.16-.11.32-.17.49Z"/><g id="b"><path d="m118.53,107.73c1.43,2.1,4.67.45,5.83-1.5-2-.85-4.04.19-5.83,1.5Z"/><path d="m122.07,103.66c-1.45.3-3.25.7-4.28,2.37-2.19,3.52,1.34,4.97,3.24,4.61,1.67-.31,4.08-1.27,4.99-3.52,1.31-3.25-2.62-3.74-3.95-3.46Z"/><ellipse cx="121.34" cy="107.05" rx="1.95" ry="2.31"/><path d="m118.53,107.73c1.43,2.1,4.67.45,5.83-1.5-2-.85-4.04.19-5.83,1.5Z"/><path d="m122.07,103.66c-1.45.3-3.25.7-4.28,2.37-2.19,3.52,1.34,4.97,3.24,4.61,1.67-.31,4.08-1.27,4.99-3.52,1.31-3.25-2.62-3.74-3.95-3.46Z"/><ellipse cx="121.34" cy="107.05" rx="1.95" ry="2.31"/><path d="m118.53,107.73c1.43,2.1,4.67.45,5.83-1.5-2-.85-4.04.19-5.83,1.5Z"/><path d="m122.07,103.66c-1.45.3-3.25.7-4.28,2.37-2.19,3.52,1.34,4.97,3.24,4.61,1.67-.31,4.08-1.27,4.99-3.52,1.31-3.25-2.62-3.74-3.95-3.46Z"/><ellipse cx="121.34" cy="107.05" rx="1.95" ry="2.31"/></g><g id="c"><path d="m23.59,115.92c.96,2.35,4.48,1.4,6.01-.27-1.78-1.25-3.99-.65-6.01.27Z"/><path d="m27.89,112.66c-1.48,0-3.32.02-4.68,1.44-2.87,2.99.29,5.14,2.22,5.18,1.7.04,4.26-.4,5.61-2.41,1.95-2.91-1.79-4.2-3.15-4.2Z"/><ellipse cx="26.48" cy="115.83" rx="2.31" ry="1.95" transform="translate(-92.33 117.86) rotate(-78.1)"/><path d="m23.59,115.92c.96,2.35,4.48,1.4,6.01-.27-1.78-1.25-3.99-.65-6.01.27Z"/><path d="m27.89,112.66c-1.48,0-3.32.02-4.68,1.44-2.87,2.99.29,5.14,2.22,5.18,1.7.04,4.26-.4,5.61-2.41,1.95-2.91-1.79-4.2-3.15-4.2Z"/><ellipse cx="26.48" cy="115.83" rx="2.31" ry="1.95" transform="translate(-92.33 117.86) rotate(-78.1)"/><path d="m23.59,115.92c.96,2.35,4.48,1.4,6.01-.27-1.78-1.25-3.99-.65-6.01.27Z"/><path d="m27.89,112.66c-1.48,0-3.32.02-4.68,1.44-2.87,2.99.29,5.14,2.22,5.18,1.7.04,4.26-.4,5.61-2.41,1.95-2.91-1.79-4.2-3.15-4.2Z"/><ellipse cx="26.48" cy="115.83" rx="2.31" ry="1.95" transform="translate(-92.33 117.86) rotate(-78.1)"/></g><path class="i" d="m228.8,354.96c-1.13.97-.84,2.2.61,2.51,1.14.24,2.39.22,3.55.03,2.23-.36,2.82-1.15,3.02-3.4.14-1.54.28-3.09.47-4.62.82-6.66,1.75-13.3,2.46-19.97.72-6.81,1.22-13.64,1.84-20.47.65-7.24,1.31-14.49,2-21.73.64-6.75,1.32-13.49,2.02-20.62.69-5.33,1.61-10.61,3.28-15.74,1.08-3.32.63-3.84-2.81-3.89-4.3-.07-8.61-.24-12.91-.36-1.55-.04-3.11-.09-4.66-.05-1.42.03-1.91.44-2.18,1.81-.16.82-.21,1.68-.2,2.53.13,11.51.23,23.01.46,34.51.15,7.34.36,14.68.82,22,.58,9.09,1.22,18.18,2.26,27.22.7,6.01.9,12.22,4.06,17.82-.35.2-.69.41-1.05.61-1.03.59-2.18,1.05-3.07,1.81Z"/><path class="i" d="m162.79,153.07c-.19.04-.63-.35-.71-.62-.25-.8-.42-1.64-.57-2.48-.93-5.15-1.81-10.3-2.76-15.45-2.12-11.49-5-22.79-9.27-33.69-2.74-6.99-4.81-14.19-6.36-21.53-3.44-16.35-5.4-32.92-7.6-49.46-.87-6.52-1.9-13.01-2.88-19.51-.11-.71-.35-1.4-.53-2.1-.18.02-.36.04-.55.05-.1.73-.21,1.46-.3,2.2-1.22,10.25-2.28,20.51-3.73,30.73-.92,6.51-2.55,12.9-5.37,18.91-3.17,6.78-8.12,11.61-15.28,14.12-6.03,2.12-12.3,2.62-18.58,2.88-7.63.32-15.26.26-22.89-.27-10.97-.77-21.54-3.02-31.4-8.1-11.88-6.13-19.09-15.61-21.07-28.95-1.05-7.08-1.35-14.21-1.56-21.34-.15-5.01-.29-10.03-.45-15.04-.01-.34-.2-.68-.31-1.01-.58.97-.87,1.92-1.04,2.88-1.73,9.74-3.59,19.47-5.11,29.24-2.3,14.82-3.82,29.74-3.41,44.77.14,5.01.45,10.04,1.09,15,1.15,8.9,2.55,17.77,3.93,26.64,1.61,10.38,1.85,20.84,1.58,31.31-.17,6.78-.68,13.55-1.1,20.32-.46,7.34-.99,14.67-1.49,22-.64,9.38-1.35,18.75-1.88,28.13-.42,7.33-.67,14.68-.88,22.03-.25,8.33-.38,16.66-.54,24.98-.08,4.03-.21,8.06-.14,12.08.08,4.3.39,8.6.56,12.9.29,7.34.42,14.69.88,22.02.45,7.26,1.13,14.52,1.91,21.75.36,3.33.66,6.75,2.61,9.8-.5.41-.96.73-1.34,1.12-.74.75-1.56,1.47-2.11,2.35-.89,1.41-.3,2.69,1.35,3,1.77.33,3.53.19,5.21-.51,1.18-.49,1.95-1.33,2.25-2.62.96-4.2,2.08-8.37,2.92-12.6,2.54-12.86,3.33-25.93,4.3-38.97.79-10.65,1.46-21.3,3.02-31.87.94-6.38,2.33-12.64,4.93-18.6,3.42-7.84,9.35-12.28,17.82-13.1,3.07-.3,6.22-.3,9.3,0,10.02.99,19.85,2.93,29.23,6.79,7.18,2.96,11.99,8.02,14.22,15.53,1.38,4.64,2.13,9.39,2.48,14.18.76,10.36,1.3,20.73,2.01,31.1.73,10.57,1.35,21.16,2.42,31.7.59,5.74,2.01,11.4,3.09,17.09.29,1.55.89,2.88,2.88,2.71.22-.02.47.23.72.36.03.97-.58,1.31-1.26,1.55-.66.23-1.39.31-2.03.6-1.08.49-2.21.96-3.14,1.68-1.3,1.01-1.72,2.97-1.07,4.22.74,1.43,2.14,1.64,3.49,1.42,6.13-1.01,7.14-1.15,9.32-7.29.35-1,.58-2.04.89-3.05.25-.81.57-1.6.83-2.4.88-2.68,1.9-5.33,2.6-8.07,2.9-11.39,4.66-22.99,6.47-34.59,1.98-12.71,4.03-25.41,6.2-38.09.99-5.79,2.6-11.46,5.1-16.8,3.76-8.03,9.9-12.4,19.03-12.37,6.61.02,13.11.96,19.62,1.84,12.75,1.71,25.49,3.59,38.36,4.2,10.8.51,21.6.86,32.41,1.21,7.42.24,14.84.3,22.25.58,2.74.1,5.5.46,8.2.98,6.48,1.24,11.09,4.9,13.17,11.25,1.05,3.21,1.88,6.54,2.34,9.88,1.69,12.2,1.87,24.51,2.4,36.8.22,5.01.31,10.03.42,15.04.16,7.14.26,14.27.46,21.41.12,4.52.3,9.04.61,13.55.18,2.57.06,5.24,1.81,7.7-.74.33-1.29.59-1.85.8-.59.23-1.22.36-1.8.62-.72.33-1.56.79-1.31,1.67.15.55.84,1.2,1.41,1.34,1.28.33,2.63.49,3.96.51,1.18.02,2.26-.55,2.86-1.58,1.2-2.07,2.54-4.11,3.35-6.34,2.36-6.46,3.64-13.21,4.7-20,2.34-15.04,3.39-30.2,4.64-45.35.99-11.91,1.87-23.82,2.75-35.73.85-11.42,1.71-22.84,2.41-34.27.53-8.67,1.04-17.36,1.14-26.04.08-6.91-.31-13.85-.79-20.75-.77-10.84-2.81-21.45-6.84-31.59-2.42-6.09-5.6-11.76-10.12-16.56-6.14-6.53-13.74-10.52-22.46-12.48-6.66-1.49-13.42-2.05-20.21-2.15-5.3-.08-10.6.18-15.89.34-4.03.13-8.05.33-12.07.55-6.35.34-12.7.76-19.05,1.07-5.36.26-10.73.41-16.1.61-6,.22-12,.6-18,.63-7.49.03-14.98-.23-22.55-.38-.14.03-.19.12-.15.6.55,2.77,1.13,5.54,1.63,8.32,1.13,6.26,2.23,12.53,3.29,18.8.14.82.11,1.69,0,2.51-.04.28-.55.61-.9.69Z"/><path class="j" d="m70.52,150.36c-2.74,3.01-4.65,3.42-8.48,1.82"/><path d="m68.62,161.11c-2.39-1.32-4.84-2.55-7.17-3.96-4.87-2.95-9.84-5.77-13.64-10.18-.37-.43-1.02-.63-1.57-.88-1.59-.7-2.34-1.85-2.3-3.51.04-1.6,1.06-2.37,2.38-2.87.49-.19,1.05-.39,1.55-.32,2.14.29,3.96-.7,5.91-1.27,3.66-1.08,7.37-2.01,11.09-2.9,1.08-.26,2.24-.16,3.36-.23.04.21.08.42.11.63-1.15.27-2.31.53-3.46.81-3.79.94-7.59,1.88-11.37,2.85-1.37.35-2.26,1.05-2.58,2.65-.27,1.33-1.16,2.54-1.92,4.11.63,1.4,1.97,2.61,3.39,3.6,4.66,3.27,9.41,6.41,14.13,9.59.73.49,1.51.92,2.27,1.38-.06.16-.11.32-.17.49Z"/><g id="d"><path d="m118.53,107.73c1.43,2.1,4.67.45,5.83-1.5-2-.85-4.04.19-5.83,1.5Z"/><path d="m122.07,103.66c-1.45.3-3.25.7-4.28,2.37-2.19,3.52,1.34,4.97,3.24,4.61,1.67-.31,4.08-1.27,4.99-3.52,1.31-3.25-2.62-3.74-3.95-3.46Z"/><ellipse cx="121.34" cy="107.05" rx="1.95" ry="2.31"/><path class="g" d="m118.53,107.73c1.43,2.1,4.67.45,5.83-1.5-2-.85-4.04.19-5.83,1.5Z"/><path class="h" d="m122.07,103.66c-1.45.3-3.25.7-4.28,2.37-2.19,3.52,1.34,4.97,3.24,4.61,1.67-.31,4.08-1.27,4.99-3.52,1.31-3.25-2.62-3.74-3.95-3.46Z"/><ellipse class="f" cx="121.34" cy="107.05" rx="1.95" ry="2.31"/></g><g id="e"><path d="m23.59,115.92c.96,2.35,4.48,1.4,6.01-.27-1.78-1.25-3.99-.65-6.01.27Z"/><path d="m27.89,112.66c-1.48,0-3.32.02-4.68,1.44-2.87,2.99.29,5.14,2.22,5.18,1.7.04,4.26-.4,5.61-2.41,1.95-2.91-1.79-4.2-3.15-4.2Z"/><ellipse cx="26.48" cy="115.83" rx="2.31" ry="1.95" transform="translate(-92.33 117.86) rotate(-78.1)"/><path class="g" d="m23.59,115.92c.96,2.35,4.48,1.4,6.01-.27-1.78-1.25-3.99-.65-6.01.27Z"/><path class="h" d="m27.89,112.66c-1.48,0-3.32.02-4.68,1.44-2.87,2.99.29,5.14,2.22,5.18,1.7.04,4.26-.4,5.61-2.41,1.95-2.91-1.79-4.2-3.15-4.2Z"/><ellipse class="f" cx="26.48" cy="115.83" rx="2.31" ry="1.95" transform="translate(-92.33 117.86) rotate(-78.1)"/></g></svg>